#!OML:ASF G:\acrobat\cartwheel_test\acrobat_wednesday\Session 1\acrobatwednesday.ASF
:FULLY-SPECIFIED
:DEGREES
251
root 6.45441 19.6292 -6.59216 -96.7215 3.04684 -151.095
lowerback -5.84676 -0.273039 -1.27402
upperback -7.85296 0.120283 -1.5493
thorax -4.86035 0.320242 -0.912458
lowerneck -32.0694 4.43092 -2.54935
upperneck 32.6736 8.30886 2.07276
head 17.0547 3.53938 3.35191
rclavicle 9.22361e-014 9.85972e-014
rhumerus -45.4487 -10.0148 -61.1812
rradius 28.0026
rwrist 44.0833
rhand -29.3695 11.6147
rfingers 7.12502
rthumb -2.70856 -18.3479
lclavicle 9.22361e-014 9.85972e-014
lhumerus -22.0274 26.9869 33.9728
lradius 39.6585
lwrist 56.9503
lhand -25.5152 -22.0868
lfingers 7.12502
lthumb 1.01396 7.89049
rfemur -0.419713 -15.1194 -14.2849
rtibia 55.908
rfoot -12.3148 14.4846
rtoes -51.0137
lfemur 17.8426 -10.8927 12.6107
ltibia 21.6569
lfoot -15.4861 -33.9202
ltoes -36.0726
252
root 6.48915 19.6429 -6.63031 -97.5625 1.89593 -152.292
lowerback -5.32554 -0.64339 -1.16369
upperback -7.80416 -0.378109 -1.13895
thorax -5.10166 0.0764962 -0.554712
lowerneck -31.8502 4.4905 -2.59785
upperneck 32.8257 8.48364 2.0613
head 17.0749 3.60802 3.39564
rclavicle -2.22639e-014 -1.43125e-014
rhumerus -46.3433 -11.9554 -56.0861
rradius 25.5133
rwrist 45.4272
rhand -30.8274 10.0405
rfingers 7.12502
rthumb -4.11646 -19.8994
lclavicle -2.22639e-014 -1.43125e-014
lhumerus -19.5763 27.4336 37.3454
lradius 39.6413
lwrist 56.7582
lhand -25.6184 -22.6282
lfingers 7.12502
lthumb 0.91432 7.34955
rfemur -3.8065 -15.7024 -14.7683
rtibia 56.1837
rfoot -11.9241 14.3875
rtoes -50.6946
lfemur 19.615 -9.0695 11.2586
ltibia 24.8994
lfoot -14.3182 -33.3014
ltoes -44.2641
253
root 6.52253 19.6534 -6.65504 -98.2489 0.98936 -153.636
lowerback -4.8316 -1.10559 -1.58016
upperback -7.71157 -0.989761 -0.639861
thorax -5.2655 -0.193724 0.196226
lowerneck -31.7704 4.4836 -2.6952
upperneck 33.1154 8.67433 1.87977
head 17.2075 3.6393 3.38975
rclavicle 2.8625e-014 3.02153e-014
rhumerus -46.9972 -14.5942 -50.1624
rradius 23.0165
rwrist 47.2613
rhand -32.3577 8.00703
rfingers 7.12502
rthumb -5.59411 -21.8991
lclavicle 2.8625e-014 3.02153e-014
lhumerus -17.1101 27.6296 40.9448
lradius 39.1459
lwrist 56.6392
lhand -25.8065 -23.2639
lfingers 7.12502
lthumb 0.732676 6.71457
rfemur -7.41883 -16.4747 -15.5539
rtibia 56.5176
rfoot -11.7079 14.1252
rtoes -49.5621
lfemur 21.2492 -7.21183 9.85038
ltibia 28.0772
lfoot -11.6604 -34.4127
ltoes -45.659
254
root 6.55726 19.6622 -6.66744 -98.7705 0.250107 -155.064
lowerback -4.24152 -1.60493 -2.365
upperback -7.69279 -1.65133 -0.149542
thorax -5.53439 -0.462974 1.15321
lowerneck -31.6651 4.42946 -2.78592
upperneck 33.5167 8.81044 1.72224
head 17.3955 3.65221 3.38783
rclavicle 1.59028e-014 -1.06549e-013
rhumerus -47.9033 -18.0541 -43.4238
rradius 20.6958
rwrist 49.7186
rhand -33.9147 5.48546
rfingers 7.12502
rthumb -7.09726 -24.3755
lclavicle 1.59028e-014 -1.06549e-013
lhumerus -14.64 27.5105 44.5197
lradius 38.1209
lwrist 56.204
lhand -25.655 -23.7466
lfingers 7.12502
lthumb 0.878928 6.23133
rfemur -11.294 -17.0115 -16.4602
rtibia 56.5808
rfoot -12.278 13.6829
rtoes -49.5951
lfemur 22.4491 -5.90851 7.80637
ltibia 31.9624
lfoot -7.84351 -34.634
ltoes -46.9017
255
root 6.59532 19.6711 -6.66709 -99.1089 -0.392603 -156.572
lowerback -3.5532 -2.11457 -3.03252
upperback -7.72209 -2.34709 0.00751308
thorax -5.90081 -0.757491 1.71241
lowerneck -31.4948 4.39607 -2.70768
upperneck 33.813 8.73568 1.88589
head 17.5071 3.66305 3.44563
rclavicle -1.90833e-014 2.38542e-014
rhumerus -49.5539 -22.2416 -36.3951
rradius 18.7423
rwrist 52.9401
rhand -35.4961 1.95587
rfingers 7.12502
rthumb -8.62355 -27.848
lclavicle -1.90833e-014 2.38542e-014
lhumerus -12.0162 26.8231 47.6486
lradius 36.7349
lwrist 55.3079
lhand -25.4168 -23.9952
lfingers 7.12502
lthumb 1.10899 5.98166
rfemur -15.3475 -17.3938 -17.4687
rtibia 56.3359
rfoot -13.0111 13.2085
rtoes -47.086
lfemur 23.7933 -4.45897 6.0064
ltibia 35.0803
lfoot -3.83612 -35.3755
ltoes -48.5817
